<?xml version="1.0" encoding="UTF-8" standalone="no"?>
<!-- Created with Inkscape (http://www.inkscape.org/) -->

<svg
   xmlns:dc="http://purl.org/dc/elements/1.1/"
   xmlns:cc="http://creativecommons.org/ns#"
   xmlns:rdf="http://www.w3.org/1999/02/22-rdf-syntax-ns#"
   xmlns:svg="http://www.w3.org/2000/svg"
   xmlns="http://www.w3.org/2000/svg"
   xmlns:sodipodi="http://sodipodi.sourceforge.net/DTD/sodipodi-0.dtd"
   xmlns:inkscape="http://www.inkscape.org/namespaces/inkscape"
   width="10.898844mm"
   height="11.62004mm"
   viewBox="0 0 10.898844 11.62004"
   version="1.1"
   id="svg134"
   inkscape:version="0.92.3 (unknown)"
   sodipodi:docname="lemon-icon.svg">
  <defs
     id="defs128" />
  <sodipodi:namedview
     id="base"
     pagecolor="#ffffff"
     bordercolor="#666666"
     borderopacity="1.0"
     inkscape:pageopacity="0.0"
     inkscape:pageshadow="2"
     inkscape:zoom="3.959798"
     inkscape:cx="-45.760693"
     inkscape:cy="9.5773119"
     inkscape:document-units="mm"
     inkscape:current-layer="layer1"
     showgrid="false"
     fit-margin-top="0"
     fit-margin-left="0"
     fit-margin-right="0"
     fit-margin-bottom="0"
     showborder="false"
     inkscape:window-width="1301"
     inkscape:window-height="744"
     inkscape:window-x="65"
     inkscape:window-y="24"
     inkscape:window-maximized="1" />
  <metadata
     id="metadata131">
    <rdf:RDF>
      <cc:Work
         rdf:about="">
        <dc:format>image/svg+xml</dc:format>
        <dc:type
           rdf:resource="http://purl.org/dc/dcmitype/StillImage" />
        <dc:title></dc:title>
      </cc:Work>
    </rdf:RDF>
  </metadata>
  <g
     inkscape:label="Layer 1"
     inkscape:groupmode="layer"
     id="layer1"
     transform="translate(-117.94085,-160.72409)">
    <path
       style="fill:#fefefe;stroke-width:0.26458332"
       d="m 118.40183,172.06122 c -0.48069,-0.33669 -0.51363,-0.61499 -0.41771,-3.52851 0.11906,-3.61645 0.46519,-4.58872 2.18755,-6.14477 1.31346,-1.18663 2.21613,-1.46101 5.31069,-1.61423 3.43977,-0.17032 3.48482,-0.11796 3.29697,3.83184 -0.16678,3.50698 -0.62675,4.75765 -2.26567,6.16051 -1.35481,1.15966 -2.12863,1.39096 -5.15318,1.54033 -1.80481,0.0891 -2.57216,0.0255 -2.95865,-0.24517 z m 6.46527,-1.30982 c 1.04096,-0.49397 2.15669,-1.70942 2.65037,-2.88726 0.35028,-0.83571 0.60025,-5.38407 0.32075,-5.83631 -0.0953,-0.15422 -1.23529,-0.23639 -2.73987,-0.1975 -2.25125,0.0582 -2.70465,0.15132 -3.59024,0.73738 -0.55748,0.36892 -1.33994,1.1639 -1.7388,1.76663 -0.63177,0.95467 -0.74467,1.44016 -0.87618,3.76805 -0.083,1.4697 -0.11033,2.79972 -0.0606,2.95559 0.14552,0.45664 4.93949,0.21309 6.03462,-0.30658 z m -5.3112,-4.54088 c 0.44382,-1.77824 2.10432,-3.48922 3.48196,-3.58781 1.03228,-0.0739 1.06372,0.53096 0.0501,0.96433 -1.04725,0.44777 -2.19421,1.61649 -2.57462,2.62348 -0.37885,1.00286 -1.20778,1.00286 -0.95748,0 z"
       id="path147"
       inkscape:connector-curvature="0" />
  </g>
</svg>
