<?xml version="1.0" encoding="UTF-8" standalone="no"?>
<!-- Created with Inkscape (http://www.inkscape.org/) -->

<svg
   xmlns:dc="http://purl.org/dc/elements/1.1/"
   xmlns:cc="http://creativecommons.org/ns#"
   xmlns:rdf="http://www.w3.org/1999/02/22-rdf-syntax-ns#"
   xmlns:svg="http://www.w3.org/2000/svg"
   xmlns="http://www.w3.org/2000/svg"
   xmlns:sodipodi="http://sodipodi.sourceforge.net/DTD/sodipodi-0.dtd"
   xmlns:inkscape="http://www.inkscape.org/namespaces/inkscape"
   width="24.866564mm"
   height="37.98278mm"
   viewBox="0 0 24.866564 37.98278"
   version="1.1"
   id="svg8"
   inkscape:version="0.92.3 (unknown)"
   sodipodi:docname="location-icon.svg">
  <defs
     id="defs2" />
  <sodipodi:namedview
     id="base"
     pagecolor="#ffffff"
     bordercolor="#666666"
     borderopacity="1.0"
     inkscape:pageopacity="0.0"
     inkscape:pageshadow="2"
     inkscape:zoom="0.98994949"
     inkscape:cx="29.849088"
     inkscape:cy="114.58929"
     inkscape:document-units="mm"
     inkscape:current-layer="layer1"
     showgrid="false"
     showborder="false"
     fit-margin-top="0"
     fit-margin-left="0"
     fit-margin-right="0"
     fit-margin-bottom="0"
     inkscape:window-width="1301"
     inkscape:window-height="744"
     inkscape:window-x="65"
     inkscape:window-y="24"
     inkscape:window-maximized="1" />
  <metadata
     id="metadata5">
    <rdf:RDF>
      <cc:Work
         rdf:about="">
        <dc:format>image/svg+xml</dc:format>
        <dc:type
           rdf:resource="http://purl.org/dc/dcmitype/StillImage" />
        <dc:title></dc:title>
      </cc:Work>
    </rdf:RDF>
  </metadata>
  <g
     inkscape:label="Layer 1"
     inkscape:groupmode="layer"
     id="layer1"
     transform="translate(-97.935762,-141.16897)">
    <path
       style="fill:#1569a9;stroke-width:0.07809865"
       d="m 109.27108,177.75984 c -3.90087,-5.25023 -7.17852,-10.53799 -9.08556,-14.65752 -1.707509,-3.68853 -2.252136,-5.96854 -2.24975,-9.41829 9.83e-4,-1.42143 0.03065,-1.9179 0.16045,-2.68551 0.605852,-3.58279 2.29712,-6.26915 5.01588,-7.96711 1.91363,-1.19513 4.5138,-1.86244 7.25695,-1.86244 5.37642,0 9.44403,2.35591 11.31525,6.55367 0.4214,0.94533 0.75847,2.09844 0.95757,3.27588 0.12981,0.76761 0.15947,1.26408 0.16045,2.68551 0.002,3.50049 -0.5465,5.76068 -2.3244,9.57067 -1.54343,3.30755 -3.76259,7.04185 -6.7238,11.31448 -1.42469,2.05565 -3.28955,4.58257 -3.38191,4.58257 -0.0368,0 -0.53233,-0.62636 -1.10113,-1.39191 z m 1.83704,-16.24443 c 1.58872,-0.14658 3.31698,-1.17141 4.3383,-2.57252 0.52156,-0.71552 1.03052,-1.81894 1.24721,-2.70398 0.22953,-0.93746 0.22859,-2.42321 -0.002,-3.36591 -0.41587,-1.69925 -1.36878,-3.17724 -2.66215,-4.12907 -0.50978,-0.37516 -1.49701,-0.85497 -2.11868,-1.02971 -0.79684,-0.22398 -2.4387,-0.20941 -3.20784,0.0285 -1.19899,0.37081 -2.09592,0.93807 -2.93971,1.85922 -2.55983,2.79448 -2.55537,7.17676 0.0101,9.92599 0.79516,0.85213 1.69415,1.42871 2.77982,1.78289 0.53838,0.17564 1.51257,0.31503 1.89122,0.2706 0.1034,-0.0121 0.40214,-0.0418 0.66387,-0.066 z"
       id="path21"
       inkscape:connector-curvature="0" />
  </g>
</svg>
