<?xml version="1.0" encoding="UTF-8" standalone="no"?>
<!-- Created with Inkscape (http://www.inkscape.org/) -->

<svg
   xmlns:dc="http://purl.org/dc/elements/1.1/"
   xmlns:cc="http://creativecommons.org/ns#"
   xmlns:rdf="http://www.w3.org/1999/02/22-rdf-syntax-ns#"
   xmlns:svg="http://www.w3.org/2000/svg"
   xmlns="http://www.w3.org/2000/svg"
   xmlns:sodipodi="http://sodipodi.sourceforge.net/DTD/sodipodi-0.dtd"
   xmlns:inkscape="http://www.inkscape.org/namespaces/inkscape"
   width="6.4945664mm"
   height="5.6747036mm"
   viewBox="0 0 6.4945664 5.6747036"
   version="1.1"
   id="svg8"
   inkscape:version="0.92.3 (unknown)"
   sodipodi:docname="quote-icon.svg">
  <defs
     id="defs2" />
  <sodipodi:namedview
     id="base"
     pagecolor="#ffffff"
     bordercolor="#666666"
     borderopacity="1.0"
     inkscape:pageopacity="0.0"
     inkscape:pageshadow="2"
     inkscape:zoom="2.8"
     inkscape:cx="5.1861914"
     inkscape:cy="-15.578456"
     inkscape:document-units="mm"
     inkscape:current-layer="layer1"
     showgrid="false"
     showborder="false"
     fit-margin-top="0"
     fit-margin-left="0"
     fit-margin-right="0"
     fit-margin-bottom="0"
     inkscape:window-width="1301"
     inkscape:window-height="744"
     inkscape:window-x="65"
     inkscape:window-y="24"
     inkscape:window-maximized="1" />
  <metadata
     id="metadata5">
    <rdf:RDF>
      <cc:Work
         rdf:about="">
        <dc:format>image/svg+xml</dc:format>
        <dc:type
           rdf:resource="http://purl.org/dc/dcmitype/StillImage" />
        <dc:title></dc:title>
      </cc:Work>
    </rdf:RDF>
  </metadata>
  <g
     inkscape:label="Layer 1"
     inkscape:groupmode="layer"
     id="layer1"
     transform="translate(-104.46115,-139.03683)">
    <path
       style="fill:#fefefe;stroke-width:0.26458332"
       d="m 104.64977,144.54898 c -0.35692,-0.35691 -0.17227,-1.62066 0.2611,-1.78696 0.40352,-0.15484 0.40229,-0.19361 -0.0158,-0.49936 -0.35281,-0.25798 -0.43515,-0.65237 -0.37134,-1.77865 l 0.082,-1.44718 h 1.45521 1.4552 l 0.0785,1.64291 c 0.0925,1.93595 -0.37312,3.0486 -1.52504,3.64428 -0.85513,0.44221 -1.15501,0.48972 -1.41977,0.22496 z m 1.6791,-1.28244 c 0.47252,-0.50298 0.65274,-1.05113 0.73938,-2.24896 l 0.11457,-1.58387 h -1.09014 -1.09013 v 1.19062 c 0,1.08126 0.0585,1.19063 0.63669,1.19063 0.51428,0 0.60906,0.10564 0.49298,0.54952 -0.079,0.30223 -0.36554,0.68806 -0.63669,0.85739 -0.27114,0.16933 -0.49298,0.3983 -0.49298,0.50881 0,0.42633 0.72964,0.171 1.32632,-0.46414 z m 1.77457,1.29653 c -0.10476,-0.10476 -0.19048,-0.51979 -0.19048,-0.9223 0,-0.52496 0.16705,-0.78484 0.59097,-0.91939 l 0.59097,-0.18756 -0.60428,-0.22354 c -0.54773,-0.20262 -0.59684,-0.36625 -0.52482,-1.74849 l 0.0795,-1.52496 h 1.45521 1.45521 v 2.04494 c 0,1.83132 -0.0691,2.11292 -0.66146,2.69576 -0.69761,0.68639 -1.86967,1.10665 -2.19078,0.78554 z m 2.16823,-1.87825 c 0.15792,-0.3466 0.28713,-1.21989 0.28713,-1.94065 v -1.31046 h -1.05834 -1.05833 v 1.19062 c 0,1.09361 0.0539,1.19063 0.66146,1.19063 0.3638,0 0.66146,0.12447 0.66146,0.27661 0,0.15213 -0.29766,0.57426 -0.66146,0.93806 -0.3638,0.36381 -0.66146,0.78184 -0.66146,0.92898 0,0.45523 1.52575,-0.60705 1.82954,-1.27379 z"
       id="path21"
       inkscape:connector-curvature="0" />
  </g>
</svg>
