<?xml version="1.0" encoding="UTF-8" standalone="no"?>
<!-- Created with Inkscape (http://www.inkscape.org/) -->

<svg
   xmlns:dc="http://purl.org/dc/elements/1.1/"
   xmlns:cc="http://creativecommons.org/ns#"
   xmlns:rdf="http://www.w3.org/1999/02/22-rdf-syntax-ns#"
   xmlns:svg="http://www.w3.org/2000/svg"
   xmlns="http://www.w3.org/2000/svg"
   xmlns:sodipodi="http://sodipodi.sourceforge.net/DTD/sodipodi-0.dtd"
   xmlns:inkscape="http://www.inkscape.org/namespaces/inkscape"
   width="10.616716mm"
   height="12.850722mm"
   viewBox="0 0 10.616716 12.850722"
   version="1.1"
   id="svg174"
   inkscape:version="0.92.3 (unknown)"
   sodipodi:docname="snowflake-icon.svg">
  <defs
     id="defs168" />
  <sodipodi:namedview
     id="base"
     pagecolor="#ffffff"
     bordercolor="#666666"
     borderopacity="1.0"
     inkscape:pageopacity="0.0"
     inkscape:pageshadow="2"
     inkscape:zoom="3.959798"
     inkscape:cx="-26.343124"
     inkscape:cy="50.923511"
     inkscape:document-units="mm"
     inkscape:current-layer="layer1"
     showgrid="false"
     showborder="false"
     fit-margin-top="0"
     fit-margin-left="0"
     fit-margin-right="0"
     fit-margin-bottom="0"
     inkscape:window-width="1301"
     inkscape:window-height="744"
     inkscape:window-x="65"
     inkscape:window-y="24"
     inkscape:window-maximized="1" />
  <metadata
     id="metadata171">
    <rdf:RDF>
      <cc:Work
         rdf:about="">
        <dc:format>image/svg+xml</dc:format>
        <dc:type
           rdf:resource="http://purl.org/dc/dcmitype/StillImage" />
        <dc:title></dc:title>
      </cc:Work>
    </rdf:RDF>
  </metadata>
  <g
     inkscape:label="Layer 1"
     inkscape:groupmode="layer"
     id="layer1"
     transform="translate(-84.463913,-219.06243)">
    <path
       style="fill:#fefefe;stroke-width:0.26458332"
       d="m 89.237221,230.92093 -0.0059,-0.99219 -0.486978,0.63336 c -0.479723,0.62393 -1.088754,0.5846 -1.088754,-0.0703 0,-0.18247 0.357187,-0.67397 0.79375,-1.09222 0.610199,-0.58461 0.79375,-0.99375 0.79375,-1.76929 0,-0.55486 -0.0893,-1.00619 -0.198438,-1.00295 -0.571349,0.0169 -1.452612,1.07876 -1.759824,2.12038 -0.219647,0.74473 -0.522929,1.21536 -0.820966,1.27398 -0.40113,0.0789 -0.446965,-0.0354 -0.302946,-0.75552 0.147159,-0.7358 0.108346,-0.8232 -0.292296,-0.65824 -1.14702,0.47228 -1.38803,0.45987 -1.38803,-0.0714 0,-0.34422 0.293966,-0.64969 0.844791,-0.87785 l 0.84479,-0.34993 -0.84479,-0.2189 c -0.971816,-0.25183 -1.167046,-1.01181 -0.249479,-0.97116 0.327422,0.0145 0.892969,0.113 1.256771,0.21888 0.616463,0.1794 2.383767,-0.38302 2.379577,-0.75728 -9.2e-4,-0.0822 -0.344429,-0.3444 -0.763354,-0.5827 -0.628567,-0.35755 -0.975004,-0.38445 -1.982312,-0.15395 -0.671347,0.15363 -1.295047,0.20491 -1.385999,0.11395 -0.366649,-0.36665 0.186691,-0.98199 0.883889,-0.98293 l 0.735908,-9.8e-4 -0.859896,-0.52429 c -0.472943,-0.28836 -0.859896,-0.71852 -0.859896,-0.95591 0,-0.42796 0.301372,-0.42257 1.38803,0.0249 0.400642,0.16496 0.439455,0.0776 0.292296,-0.65824 -0.144166,-0.72083 -0.09838,-0.83449 0.304373,-0.75552 0.305902,0.06 0.603615,0.53765 0.839278,1.34659 0.270662,0.92909 0.568872,1.35896 1.151868,1.66044 l 0.786655,0.4068 v -1.01563 c 0,-0.78309 -0.181733,-1.18974 -0.79375,-1.77609 -0.436563,-0.41825 -0.79375,-0.90975 -0.79375,-1.09221 0,-0.65491 0.609031,-0.69425 1.088755,-0.0703 l 0.486978,0.63337 0.0059,-0.96388 c 0.0035,-0.57839 0.154264,-1.02082 0.376891,-1.10625 0.531869,-0.2041 0.686533,0.0462 0.693208,1.12204 l 0.0059,0.94809 0.486978,-0.63337 c 0.479724,-0.62393 1.088755,-0.58459 1.088755,0.0703 0,0.18246 -0.357187,0.67396 -0.79375,1.09221 -0.612017,0.58635 -0.79375,0.993 -0.79375,1.77609 v 1.01563 l 0.777988,-0.40231 c 0.578327,-0.29907 0.869036,-0.72468 1.13276,-1.65842 0.238111,-0.84305 0.516943,-1.28733 0.847945,-1.35107 0.424703,-0.0818 0.469614,0.0228 0.323481,0.75349 -0.147159,0.73579 -0.108346,0.8232 0.292296,0.65824 1.086658,-0.44743 1.38803,-0.45282 1.38803,-0.0249 0,0.23739 -0.386953,0.66755 -0.859896,0.95591 l -0.859896,0.52429 0.735908,9.7e-4 c 0.697198,9.3e-4 1.250538,0.61628 0.883889,0.98293 -0.09095,0.091 -0.714652,0.0397 -1.385999,-0.11395 -1.007308,-0.2305 -1.353745,-0.2036 -1.982312,0.15395 -0.418925,0.2383 -0.762434,0.50052 -0.763354,0.5827 -0.0042,0.37426 1.763114,0.93668 2.379577,0.75727 0.363802,-0.10587 0.929349,-0.20436 1.256771,-0.21887 0.844521,-0.0374 0.757543,0.71658 -0.107714,0.93375 l -0.703026,0.17644 0.703026,0.51212 c 0.80221,0.58437 0.966507,1.39921 0.240005,1.19032 -0.254661,-0.0732 -0.670915,-0.21873 -0.925009,-0.32335 -0.400642,-0.16496 -0.439455,-0.0776 -0.292296,0.65824 0.144019,0.72009 0.09818,0.8344 -0.302946,0.75552 -0.298037,-0.0586 -0.601319,-0.52924 -0.820966,-1.27397 -0.307212,-1.04162 -1.188475,-2.10344 -1.759824,-2.12038 -0.109141,-0.003 -0.198438,0.44809 -0.198438,1.00295 0,0.77554 0.183551,1.18468 0.79375,1.76929 0.436563,0.41825 0.79375,0.90975 0.79375,1.09222 0,0.65491 -0.609031,0.69424 -1.088755,0.0703 l -0.486978,-0.63336 -0.0059,0.99219 c -0.0048,0.81383 -0.101003,0.99218 -0.53505,0.99218 -0.434046,0 -0.530224,-0.17835 -0.535049,-0.99218 z"
       id="path187"
       inkscape:connector-curvature="0" />
  </g>
</svg>
